<svg xmlns="http://www.w3.org/2000/svg" width="1000" height="300" viewBox="0 0 1000 300" role="img" aria-labelledby="title desc"><title id="title">Kaleab Yohannes</title><desc id="desc">An illustrated notebook cover in paper, ink and terracotta. Software, web, mobile, APIs and AI.</desc><defs><pattern id="paper" width="18" height="18" patternUnits="userSpaceOnUse"><circle cx="3" cy="4" r=".6" fill="#948773" opacity=".18"/><circle cx="13" cy="14" r=".5" fill="#948773" opacity=".12"/></pattern></defs><rect width="1000" height="300" rx="5" fill="#F5F0E7"/><rect width="1000" height="300" rx="5" fill="url(#paper)"/><path d="M40 37C220 30 424 38 620 33" fill="none" stroke="#D8CEBE"/><text x="45" y="64" font-family="ui-monospace,Consolas,monospace" font-size="13" fill="#666351" letter-spacing="3">KALEAB-Y / NOTES &amp; PROJECTS</text><text x="40" y="151" font-family="Georgia,serif" font-size="70" font-style="italic" fill="#31302B">Kaleab Yohannes</text><path d="M45 171Q160 163 267 170T520 170" fill="none" stroke="#AC6C45" stroke-width="3" stroke-linecap="round"/><text x="46" y="214" font-family="Verdana,sans-serif" font-size="19" fill="#535D52">software · web · mobile · APIs · AI</text><text x="46" y="264" font-family="ui-monospace,Consolas,monospace" font-size="12" fill="#777467">a few things I've been working on ↓</text><g fill="none" stroke-linecap="round"><path d="M785 62C889 24 964 94 929 181C897 254 781 258 749 174C728 109 781 53 856 57" stroke="#AC6C45" stroke-width="2"/><path d="M775 68C851 32 950 87 925 176C897 249 788 242 752 166" stroke="#AC6C45" opacity=".38"/><path d="M721 214C782 172 863 263 960 210" stroke="#6D806B" stroke-width="2"/><path d="M740 220C804 189 883 267 950 221" stroke="#6D806B" opacity=".35"/></g><text x="790" y="152" fill="#31302B" font-family="Georgia,serif" font-size="48" font-style="italic">&lt;/&gt;</text><circle cx="931" cy="90" r="5" fill="#6D806B"><animate attributeName="opacity" values=".4;1;.4" dur="4s" repeatCount="indefinite"/></circle><path d="M740 41l7-12m-4 13l13-2M957 171l10 4m-10 2l7 8" stroke="#31302B" stroke-width="1.5"/></svg>
